<svg width="36" height="29" viewBox="0 0 36 29" fill="none" xmlns="http://www.w3.org/2000/svg">
<path d="M11.6552 28.7197C24.8628 28.7197 32.0868 17.7773 32.0868 8.28805C32.0868 7.97725 32.0868 7.66786 32.0658 7.35986C33.4712 6.34333 34.6843 5.08469 35.6484 3.64286C34.338 4.22386 32.9477 4.60471 31.524 4.77265C33.0232 3.87533 34.1451 2.4638 34.681 0.800855C33.2715 1.63737 31.7294 2.22685 30.1212 2.54386C29.0386 1.39261 27.6066 0.63029 26.0471 0.374853C24.4875 0.119416 22.8872 0.385105 21.4938 1.13081C20.1004 1.87651 18.9917 3.06065 18.3391 4.49999C17.6865 5.93933 17.5265 7.55362 17.8838 9.09305C15.0289 8.94984 12.236 8.20789 9.68639 6.91536C7.13679 5.62283 4.88747 3.80861 3.08444 1.59045C2.16617 3.17128 1.88492 5.04266 2.29796 6.82357C2.711 8.60448 3.78727 10.161 5.30764 11.1763C4.16482 11.1428 3.04688 10.8345 2.04844 10.2775V10.3685C2.04889 12.0264 2.6228 13.6331 3.67283 14.9161C4.72286 16.1991 6.18436 17.0794 7.80944 17.4077C6.75226 17.696 5.64305 17.7382 4.56704 17.5309C5.02608 18.9576 5.91948 20.2052 7.12233 21.0993C8.32518 21.9934 9.77735 22.4893 11.2758 22.5177C9.78699 23.6879 8.08202 24.5532 6.25846 25.0639C4.4349 25.5746 2.52854 25.7208 0.648438 25.4941C3.93236 27.6014 7.75333 28.7192 11.6552 28.7141" fill="#D0DCE8"/>
</svg>
